<svg width="66" height="24" viewBox="0 0 66 24" fill="none" xmlns="http://www.w3.org/2000/svg">
<path d="M14.5577 18.3548L13.0588 14.049C14.2496 13.6558 15.1371 13.3204 15.7213 13.0443C16.2958 12.757 16.8639 12.3157 17.4272 11.7203C18.0226 11.0928 18.3195 10.3546 18.3195 9.50398C18.3195 8.64217 18.0114 7.92319 17.3951 7.34384C16.7789 6.76448 16.0342 6.474 15.1628 6.474C14.3443 6.474 13.5916 6.76448 12.9063 7.34384C12.2211 7.92319 11.8776 8.6165 11.8776 9.42535C11.8776 10.1058 12.0766 10.7381 12.4762 11.3223C12.8742 11.9065 13.3926 12.3269 14.0313 12.5821V12.6463C12.2981 13.5178 10.1572 14.2881 7.60547 14.9589L8.91343 19.9661C9.07231 20.6145 9.23762 21.1489 9.40773 21.5694C9.57785 21.9898 9.80895 22.3927 10.101 22.781C10.3931 23.1694 10.7622 23.4583 11.2084 23.6509C11.6545 23.8418 12.197 23.9429 12.8341 23.9542C13.8115 23.9542 14.8675 23.5562 15.9989 22.7586C17.1303 21.9609 18.074 21.0847 18.8299 20.1282V20.0014C18.1928 20.2983 17.6134 20.4476 17.0918 20.4476C15.8914 20.4427 15.0456 19.7478 14.5577 18.3548Z" fill="white"/>
<path d="M10.0127 0.00160643C9.10921 0.298506 7.74347 0.597011 5.91553 0.893911C3.9592 1.21328 2.42334 1.40907 1.30796 1.4845V1.61129C2.02052 1.90979 2.56136 2.2436 2.93369 2.61593C3.30602 2.98826 3.49218 3.50342 3.49218 4.16302C3.49218 4.75842 3.42799 5.38593 3.3012 6.04392L0 23.5193H5.83529L10.1572 0H10.0127V0.00160643Z" fill="white"/>
<path d="M25.759 19.5341C25.759 19.364 25.8008 18.9821 25.8858 18.3866L27.1938 11.3381C27.2997 10.839 27.3527 10.2853 27.3527 9.68026C27.3527 7.54418 26.3897 6.47534 24.4671 6.47534C23.5636 6.47534 22.514 6.92792 21.3184 7.83145C20.1228 8.73499 19.2272 9.63371 18.6318 10.526V10.6528C19.6204 10.2805 20.3057 10.0943 20.6893 10.0943C21.1884 10.1152 21.4387 10.4137 21.4387 10.9866C21.4387 11.0604 21.3954 11.3959 21.312 11.9913L19.9414 19.0703C19.8355 19.7395 19.7825 20.2868 19.7825 20.7121C19.7825 21.8708 20.0473 22.7005 20.5801 23.1996C21.1113 23.6987 21.7709 23.9491 22.5573 23.9491C23.716 23.9491 24.8266 23.572 25.889 22.8177C26.9515 22.0634 27.8229 21.1326 28.5034 20.0268V19.9C27.664 20.3141 26.9932 20.5227 26.4941 20.5227C26.0046 20.5227 25.759 20.1937 25.759 19.5341Z" fill="white"/>
<path d="M25.758 0.112793C24.9395 0.112793 24.243 0.396855 23.6685 0.966582C23.0939 1.5347 22.8066 2.22961 22.8066 3.04809C22.8275 3.86657 23.1196 4.56629 23.6829 5.14404C24.2462 5.7234 24.9379 6.01388 25.7564 6.01388C26.5749 6.01388 27.2746 5.72179 27.8539 5.13762C28.4333 4.55345 28.7238 3.85694 28.7238 3.04809C28.7238 2.24084 28.4333 1.54915 27.8539 0.974604C27.2762 0.400063 26.5765 0.112793 25.758 0.112793Z" fill="white"/>
<path d="M46.6796 8.51724C46.2912 7.90097 45.7649 7.40988 45.1004 7.04237C44.436 6.67486 43.6625 6.48709 42.7798 6.47585C41.2488 6.47585 39.6391 7.22533 37.9476 8.72427H37.8834L39.5893 0.00183105H39.4465C38.543 0.298731 37.1772 0.597235 35.3493 0.894135C33.3929 1.2135 31.8571 1.4093 30.7417 1.48472V1.61151C31.4543 1.91001 31.9951 2.24383 32.3674 2.61616C32.7398 2.98848 32.9259 3.50364 32.9259 4.16324C32.9259 4.75865 32.8617 5.38615 32.735 6.04414L29.5942 22.5791C30.5299 23.0156 31.6774 23.3446 33.0383 23.5677C34.3992 23.7907 35.6911 23.9079 36.9124 23.9191C38.368 23.9191 39.952 23.4617 41.6644 22.5486C43.4394 21.6033 44.9095 20.2472 46.073 18.4818C47.2365 16.7181 47.8191 14.8677 47.8191 12.9322C47.8191 12.0929 47.726 11.3001 47.5398 10.557C47.3537 9.81397 47.0664 9.13351 46.6796 8.51724ZM40.3083 19.9968C39.2555 21.8248 37.9797 22.7395 36.4807 22.7395C36.1613 22.7395 35.789 22.6176 35.3637 22.372L37.8192 9.40794C38.2236 9.1961 38.6168 9.08857 38.9987 9.08857C40.9117 9.08857 41.8682 10.4495 41.8682 13.1713C41.8714 15.8836 41.3499 18.1577 40.3083 19.9968Z" fill="white"/>
<path d="M63.8626 8.45263C62.4487 7.13503 60.738 6.47543 58.7287 6.47543C56.1882 6.4642 53.9028 7.49131 51.8727 9.55356C49.8634 11.5949 48.8475 13.9862 48.8267 16.7289C48.8267 18.9404 49.528 20.6881 50.9322 21.9752C52.3574 23.2719 54.0521 23.9203 56.0181 23.9203C58.6228 23.9315 60.9402 22.8836 62.9703 20.7796C64.9893 18.6852 66.0003 16.3149 66.0003 13.6684C65.9987 11.5195 65.2861 9.78145 63.8626 8.45263ZM59.7638 15.8511C59.6996 16.2651 59.6178 16.7177 59.5167 17.2072C59.4156 17.6966 59.2615 18.2888 59.0545 18.9854C58.8474 19.6819 58.6179 20.2981 58.3692 20.8342C58.1188 21.3718 57.8107 21.834 57.4448 22.2208C57.0773 22.6091 56.6873 22.8033 56.2732 22.8033C55.1883 22.8033 54.6475 21.4007 54.6475 18.5938C54.6475 15.7981 55.0407 13.2624 55.8271 10.9883C56.6135 8.72385 57.4913 7.59242 58.4574 7.59242C58.8185 7.58118 59.1219 7.72241 59.3658 8.0145C59.6097 8.30658 59.7831 8.69496 59.8842 9.17802C59.9853 9.66109 60.0511 10.0816 60.0832 10.4378C60.1153 10.7941 60.1313 11.1472 60.1313 11.4987C60.1313 12.7103 60.0093 14.1611 59.7638 15.8511Z" fill="white"/>
</svg>
